HIERARCHY
ROOT Hips
{
    OFFSET 0.000000 0.000000 0.000000
    CHANNELS 6 Xposition Yposition Zposition Zrotation Xrotation Yrotation
    JOINT Spine
    {
        OFFSET -0.000000 7.979263 0.000000
        CHANNELS 3 Zrotation Xrotation Yrotation
        JOINT Spine1
        {
            OFFSET -0.000000 24.719021 0.000000
            CHANNELS 3 Zrotation Xrotation Yrotation
            JOINT Neck
            {
                OFFSET -0.000000 24.617504 2.237955
                CHANNELS 3 Zrotation Xrotation Yrotation
                JOINT Head
                {
                    OFFSET -0.000000 13.623132 -1.946162
                    CHANNELS 3 Zrotation Xrotation Yrotation
                    End Site
                    {
                        OFFSET -0.000000 24.327021 0.000000
                    }
                }
            }
            JOINT LeftShoulder
            {
                OFFSET 3.885773 23.018444 -0.302444
                CHANNELS 3 Zrotation Xrotation Yrotation
                JOINT LeftArm
                {
                    OFFSET 10.447750 0.000000 0.000000
                    CHANNELS 3 Zrotation Xrotation Yrotation
                    JOINT LeftForeArm
                    {
                        OFFSET 29.090096 0.000000 0.000000
                        CHANNELS 3 Zrotation Xrotation Yrotation
                        JOINT LeftHand
                        {
                            OFFSET 28.893339 0.000000 0.000000
                            CHANNELS 3 Zrotation Xrotation Yrotation
                            End Site
                            {
                                OFFSET 14.596213 0.000000 0.000000
                            }
                        }
                    }
                }
            }
            JOINT RightShoulder
            {
                OFFSET -3.864586 23.018444 -0.302444
                CHANNELS 3 Zrotation Xrotation Yrotation
                JOINT RightArm
                {
                    OFFSET -10.447750 0.000000 0.000000
                    CHANNELS 3 Zrotation Xrotation Yrotation
                    JOINT RightForeArm
                    {
                        OFFSET -29.090096 0.000000 0.000000
                        CHANNELS 3 Zrotation Xrotation Yrotation
                        JOINT RightHand
                        {
                            OFFSET -28.893339 0.000000 0.000000
                            CHANNELS 3 Zrotation Xrotation Yrotation
                            End Site
                            {
                                OFFSET -14.596213 0.000000 0.000000
                            }
                        }
                    }
                }
            }
        }
    }
    JOINT LeftUpLeg
    {
        OFFSET 9.730808 0.000000 0.000000
        CHANNELS 3 Zrotation Xrotation Yrotation
        JOINT LeftLeg
        {
            OFFSET -0.000000 -34.800129 0.000000
            CHANNELS 3 Zrotation Xrotation Yrotation
            JOINT LeftFoot
            {
                OFFSET -0.000000 -44.597416 0.000000
                CHANNELS 3 Zrotation Xrotation Yrotation
                JOINT LeftToeBase
                {
                    OFFSET -0.000000 -6.325025 14.596213
                    CHANNELS 3 Zrotation Xrotation Yrotation
                    End Site
                    {
                        OFFSET -0.000000 0.000000 3.892323
                    }
                }
            }
        }
    }
    JOINT RightUpLeg
    {
        OFFSET -9.730808 0.000000 0.000000
        CHANNELS 3 Zrotation Xrotation Yrotation
        JOINT RightLeg
        {
            OFFSET -0.000000 -34.800129 0.000000
            CHANNELS 3 Zrotation Xrotation Yrotation
            JOINT RightFoot
            {
                OFFSET -0.000000 -44.597416 0.000000
                CHANNELS 3 Zrotation Xrotation Yrotation
                JOINT RightToeBase
                {
                    OFFSET -0.000000 -6.325025 14.596213
                    CHANNELS 3 Zrotation Xrotation Yrotation
                    End Site
                    {
                        OFFSET -0.000000 0.000000 3.892323
                    }
                }
            }
        }
    }
}
MOTION
Frames:    11
Frame Time:    0.008333
-10.614502    87.086578    28.194469    -2.219421    -1.339839    93.399368    0.133697    -11.525730    -1.508284    -0.232796    -3.888685    -1.529737    0.425391    26.365885    -0.609985    6.145927    12.073308    -0.361735    17.651541    4.012097    -12.689104    -19.888418    -3.856493    5.546633    3.027185    1.438122    -4.765332    -0.642307    1.563613    0.080028    -11.583416    1.830160    -5.849023    13.558730    12.723542    11.929875    -2.732450    1.620197    -0.345632    -3.764049    1.519638    2.810829    -0.038372    2.537885    -7.145370    0.017604    0.126238    11.616211    -4.524964    1.447850    -2.976679    0.000000    0.000000    0.000000    2.889308    4.912663    -8.110816    1.260908    -0.973674    -8.469813    0.055100    -0.571179    0.323377    0.000000    0.000000    0.000000    
-10.603984    87.091362    28.201857    -2.217175    -1.332853    93.386955    0.110283    -11.516950    -1.489410    -0.211133    -3.900745    -1.507754    0.476305    26.360929    -0.578680    6.047930    11.993911    -0.323551    17.647217    3.983286    -12.722230    -19.852520    -3.836774    5.544817    3.017494    1.439905    -4.716575    -0.641847    1.563677    0.085300    -11.597485    1.819617    -5.836112    13.552475    12.722993    11.859451    -2.730149    1.562789    -0.348401    -3.822587    1.460889    2.806368    -0.042532    2.558114    -7.136452    0.021166    0.106297    11.654243    -4.519631    1.476954    -2.994021    0.000000    0.000000    0.000000    2.887596    4.941320    -8.103771    1.267293    -1.012923    -8.480974    0.045148    -0.539254    0.337007    0.000000    0.000000    0.000000    
-10.594203    87.095177    28.209263    -2.221378    -1.325035    93.383675    0.096593    -11.515376    -1.479267    -0.216674    -3.917929    -1.496417    0.522085    26.359068    -0.504658    5.999532    11.892446    -0.238371    17.673210    3.996245    -12.764499    -19.828938    -3.836813    5.560211    3.015118    1.407324    -4.680800    -0.679228    1.529908    0.106698    -11.588899    1.825982    -5.823953    13.521607    12.758107    11.813052    -2.771639    1.522073    -0.356142    -3.701735    1.420910    2.864933    -0.045087    2.577181    -7.133460    0.022252    0.080737    11.629154    -4.508116    1.502169    -2.961143    0.000000    0.000000    0.000000    2.885450    4.960603    -8.101641    1.268729    -1.041280    -8.485460    0.056178    -0.517203    0.338884    0.000000    0.000000    0.000000    
-10.586321    87.097595    28.217108    -2.228017    -1.317052    93.377708    0.075629    -11.514065    -1.470730    -0.194335    -3.930247    -1.485052    0.519290    26.291439    -0.464408    5.945097    11.920684    -0.200786    17.653120    3.945042    -12.772168    -19.779387    -3.785635    5.554416    3.029029    1.427376    -4.580314    -0.738008    1.549754    -0.191642    -11.637314    1.806748    -5.821366    13.530410    12.759213    11.794590    -2.756600    1.527549    -0.393756    -3.755496    1.426474    2.795862    -0.047608    2.590405    -7.131885    0.027263    0.051381    11.671099    -4.530447    1.540066    -3.004298    0.000000    0.000000    0.000000    2.824101    5.018085    -7.963409    1.380187    -1.110858    -8.353518    -0.014976    -0.509510    0.078350    0.000000    0.000000    0.000000    
-10.575514    87.101677    28.224033    -2.225073    -1.309971    93.370163    0.058261    -11.503513    -1.455101    -0.180688    -3.954325    -1.467240    0.583758    26.267481    -0.442701    5.823212    11.903638    -0.175889    17.658005    3.944032    -12.805773    -19.742832    -3.793271    5.538511    3.068122    1.411562    -4.565705    -1.373125    1.533458    0.034543    -11.664017    1.795735    -5.826731    13.523950    12.731916    11.772525    -2.733085    1.470911    -0.399830    -3.911735    1.369255    2.698569    -0.055763    2.612167    -7.138801    0.037219    0.031982    11.711930    -4.459838    1.541491    -3.029858    0.000000    0.000000    0.000000    2.823973    5.055720    -7.991561    1.383502    -1.157236    -8.319297    0.025158    -0.482502    0.078760    0.000000    0.000000    0.000000    
-10.564520    87.104164    28.231789    -2.220143    -1.301884    93.370613    0.025151    -11.495504    -1.450006    -0.137246    -3.962855    -1.457264    0.499265    26.207098    -0.404191    5.877398    11.944852    -0.144310    17.648993    3.905571    -12.809121    -19.712732    -3.774354    5.507885    3.074789    1.452438    -4.501469    -1.209062    1.573040    0.025433    -11.735492    1.784067    -5.837503    13.541039    12.683238    11.770937    -2.681890    1.467317    -0.466037    -4.064578    1.358913    2.748037    -0.051302    2.652935    -7.152926    0.030917    -0.017065    11.750275    -4.525010    1.592450    -3.034061    0.000000    0.000000    0.000000    2.821558    5.092370    -8.002771    1.386631    -1.197314    -8.328539    0.008096    -0.458363    0.103454    0.000000    0.000000    0.000000    
-10.554029    87.105858    28.240316    -2.216251    -1.300602    93.366020    0.009733    -11.487605    -1.445952    -0.103528    -3.980869    -1.450576    0.437295    26.139246    -0.325374    5.914147    11.984165    -0.069327    17.612896    3.871759    -12.799491    -19.659224    -3.714458    5.476503    3.088211    1.483624    -4.405861    -1.195056    1.602915    -0.047537    -11.808774    1.766325    -5.832524    13.557162    12.661172    11.770287    -2.699069    1.515130    -0.491109    -3.888603    1.411667    2.708245    -0.056768    2.662261    -7.137480    0.049038    -0.010188    11.744490    -4.513505    1.594685    -3.044016    0.000000    0.000000    0.000000    2.827739    5.119771    -8.040339    1.388773    -1.227043    -8.294262    0.042192    -0.435477    0.099388    0.000000    0.000000    0.000000    
-10.541849    87.108551    28.247320    -2.212379    -1.293252    93.364792    0.013163    -11.489313    -1.439912    -0.126268    -3.989495    -1.445657    0.449310    26.159819    -0.298591    5.864522    11.903822    -0.037586    17.626152    3.839120    -12.799033    -19.612902    -3.684176    5.451292    3.087808    1.483141    -4.337198    -1.099998    1.599905    0.018134    -11.832843    1.747263    -5.824410    13.548806    12.581659    11.750839    -2.645196    1.546713    -0.493498    -3.897363    1.444140    2.680954    -0.053599    2.685206    -7.150437    0.039656    -0.030576    11.751763    -4.417975    1.583915    -3.041352    0.000000    0.000000    0.000000    2.824510    5.166646    -8.012006    1.396968    -1.284165    -8.323651    0.035664    -0.415220    0.109548    0.000000    0.000000    0.000000    
-10.529009    87.112259    28.254446    -2.212481    -1.283095    93.352394    0.005790    -11.507318    -1.436165    -0.131345    -3.971416    -1.441297    0.458248    26.137108    -0.268960    5.800356    11.859963    -0.006336    17.635944    3.798502    -12.778156    -19.566605    -3.643467    5.425955    3.045712    1.496226    -4.263014    -0.606730    1.609152    0.082632    -11.882393    1.727301    -5.799821    13.575128    12.562425    11.738882    -2.645662    1.545750    -0.529071    -3.879234    1.443023    2.674027    -0.060922    2.695639    -7.160374    0.044177    -0.027200    11.714472    -4.419894    1.588538    -2.987053    0.000000    0.000000    0.000000    2.818636    5.191514    -8.027661    1.398376    -1.312732    -8.305223    0.020415    -0.393965    0.122768    0.000000    0.000000    0.000000    
-10.519864    87.113716    28.262419    -2.212856    -1.278017    93.348320    -0.006972    -11.520743    -1.429563    -0.118779    -3.954730    -1.432999    0.451346    26.124420    -0.256979    5.758156    11.790056    0.007365    17.619970    3.754871    -12.783576    -19.502520    -3.580253    5.409324    3.038025    1.474008    -4.190674    -0.550536    1.584638    0.108200    -11.933087    1.691498    -5.796541    13.582538    12.516641    11.725123    -2.620709    1.592553    -0.552962    -3.796027    1.490816    2.689259    -0.060279    2.701840    -7.153599    0.043415    -0.028655    11.726190    -4.439760    1.605525    -2.992944    0.000000    0.000000    0.000000    2.812860    5.151077    -8.387269    1.406057    -1.220503    -7.916293    0.050661    -0.438197    0.092584    0.000000    0.000000    0.000000    
-10.501064    87.108109    28.275293    -2.195000    -1.293168    93.320061    0.007530    -11.536585    -1.415925    -0.107399    -3.911864    -1.420400    0.399276    26.068907    -0.228421    5.760047    11.784862    0.031871    17.602282    3.721974    -12.774640    -19.404612    -3.676465    5.382060    2.999783    1.556941    -4.098655    -0.546987    1.663761    0.108122    -12.003931    1.655260    -5.780690    13.652937    12.536653    11.700465    -2.675922    1.566730    -0.566121    -3.760905    1.465362    2.685656    -0.032825    2.727965    -7.105370    0.037827    -0.016951    11.707211    -4.540965    1.580131    -2.986462    0.000000    0.000000    0.000000    2.843595    5.252546    -8.022189    1.402779    -1.354609    -8.257518    0.043248    -0.388231    0.102332    0.000000    0.000000    0.000000    
